<!-- icon666.com - MILLIONS vector ICONS FREE -->
<svg id="Capa_1" enable-background="new 0 0 512.001 512.001" viewBox="0 0 512.001 512.001" xmlns="http://www.w3.org/2000/svg">
<g><path d="m509.071 77.072c2.859-2.86 3.716-7.161 2.168-10.898s-5.194-6.174-9.239-6.174h-50v-50c0-4.045-2.437-7.691-6.173-9.239-3.738-1.546-8.039-.691-10.898 2.168l-38.772 38.771c-41.666-27.304-89.935-41.7-140.157-41.7-141.581 0-256 114.382-256 256 0 141.581 114.382 256 256 256 57.475 0 111.76-18.569 156.986-53.7 4.361-3.388 5.15-9.671 1.763-14.032-3.389-4.36-9.669-5.15-14.032-1.763-41.685 32.38-91.727 49.495-144.717 49.495-130.131 0-236-105.869-236-236s105.869-236 236-236c44.896 0 88.094 12.476 125.685 36.173l-6.756 6.756c-1.875 1.876-2.929 4.419-2.929 7.071v55.857l-5.958 5.957c-30.418-27.03-69.116-41.814-110.042-41.814-91.532 0-166 74.468-166 166s74.468 166 166 166 166-74.468 166-166c0-40.925-14.783-79.622-41.815-110.042l5.958-5.958h55.857c2.652 0 5.195-1.054 7.071-2.929l6.757-6.757c23.696 37.583 36.172 80.782 36.172 125.686 0 43.305-11.801 85.631-34.127 122.402-2.866 4.721-1.363 10.871 3.358 13.737 4.702 2.855 10.859 1.382 13.737-3.358 24.226-39.9 37.032-85.815 37.032-132.781 0-50.23-14.397-98.501-41.699-140.158zm-107.071 178.928c0 80.505-65.495 146-146 146s-146-65.495-146-146 65.495-146 146-146c35.584 0 69.258 12.712 95.875 35.983l-49.696 49.696c-13.206-10.159-29.271-15.679-46.179-15.679-41.906 0-76 34.094-76 76s34.094 76 76 76 76-34.094 76-76c0-16.908-5.52-32.972-15.679-46.178l49.696-49.696c23.271 26.617 35.983 60.291 35.983 95.874zm-90 0c0 30.879-25.121 56-56 56s-56-25.121-56-56 25.121-56 56-56c11.552 0 22.57 3.503 31.873 9.984l-38.944 38.944c-3.905 3.905-3.905 10.237 0 14.143 3.907 3.905 10.236 3.904 14.143 0l38.944-38.944c6.481 9.304 9.984 20.322 9.984 31.873zm125.857-136h-45.857v-45.857c13.375-13.375 27.23-27.23 40-40v35.857c0 5.522 4.478 10 10 10h35.857z" fill="#636363"></path><circle cx="440.001" cy="420" r="10"></circle></g></svg>